<svg width="12" height="12" viewBox="0 0 12 12" fill="none" xmlns="http://www.w3.org/2000/svg">
<path fill-rule="evenodd" clip-rule="evenodd" d="M6 0.153992C2.69189 0.153992 0 2.77698 0 6C0 9.22299 2.69189 11.846 6 11.846C9.30811 11.846 12 9.22299 12 6C12 2.77698 9.30811 0.153992 6 0.153992ZM6 1.077C8.7959 1.077 11.0527 3.276 11.0527 6C11.0527 8.724 8.7959 10.923 6 10.923C3.20361 10.923 0.946777 8.724 0.946777 6C0.946777 3.276 3.20361 1.077 6 1.077ZM5.52588 2.30698C5.53027 2.04929 5.74219 1.84366 6 1.84698C6.12402 1.84439 6.24365 1.89215 6.33252 1.97882C6.42139 2.06546 6.47217 2.18387 6.47412 2.30798V5.73599L9.24707 7.293C9.35498 7.3522 9.43408 7.4527 9.4668 7.5715C9.49902 7.69028 9.48193 7.81714 9.41895 7.92297C9.28418 8.14404 8.99805 8.21838 8.77295 8.09097L5.7627 6.39899C5.62207 6.31998 5.52588 6.16998 5.52588 6V2.30698Z" fill="#2196F3"/>
</svg>
