<svg width="17" height="23" viewBox="0 0 17 23" fill="none" xmlns="http://www.w3.org/2000/svg">
<path fill-rule="evenodd" clip-rule="evenodd" d="M5.98975 7.62771e-06C5.4248 7.62771e-06 4.98486 0.448006 4.98486 1.00001C4.98486 1.26612 5.09082 1.52119 5.2793 1.70887C5.46826 1.89655 5.72363 2.00135 5.98975 2.00001L5.98682 5.00001H1.96484C0.862793 5.00001 0 5.89301 0 6.995V19.005C0 20.107 0.861816 21 1.96484 21H3.98486V22C3.98486 22.557 4.43213 23 4.98486 23C5.54199 23 5.98682 22.553 5.98682 22V21H10.9951V22C10.9951 22.1221 11.0171 22.2419 11.0591 22.3539C11.0757 22.3988 11.0957 22.4425 11.1191 22.4844C11.1328 22.5095 11.1479 22.5339 11.1641 22.5577C11.2002 22.6115 11.2417 22.662 11.2881 22.7084C11.4761 22.8961 11.7314 23.001 11.9971 23C12.5542 23 12.9971 22.553 12.9971 22V21H15.0869C16.188 21 17 20.107 17 19.005V6.995C17 5.89301 16.1899 5.00001 15.0869 5.00001H10.9951L10.9917 2.00001C11.5581 2.00001 11.9961 1.55201 11.9961 1.00001C11.9961 0.734077 11.8901 0.479134 11.7017 0.291512C11.5132 0.103828 11.2578 -0.00102997 10.9917 7.62771e-06H5.98975ZM9.99316 2.00001H6.98682V5.00001H9.99316V2.00001ZM11.9951 20H4.98682V21L4.98486 22V20H1.96484C1.4248 20 1 19.565 1 19.005V6.995C1 6.43501 1.4248 6.00001 1.96484 6.00001H15.0869C15.6079 6.00001 16 6.41499 16 6.995V19.005C16 19.583 15.6079 20 15.0879 20H11.9951Z" fill="#F34C3D"/>
</svg>
