<svg width="19" height="20" viewBox="0 0 19 20" fill="none" xmlns="http://www.w3.org/2000/svg">
<path fill-rule="evenodd" clip-rule="evenodd" d="M9.5 0.5C11.9609 0.5 13.9912 2.44678 14.4175 5H17.0879C18.188 5 18.998 5.89301 18.998 6.995V18.005C18.998 19.107 18.188 20 17.0879 20H1.98291C0.879883 20 0.0200195 19.107 0.0200195 18.005V6.995C0.0200195 5.89301 0.883789 5 1.98389 5H4.58252C5.00879 2.44678 7.03906 0.5 9.5 0.5ZM5.5 6H4.5H1.98291C1.4458 6 1.021 6.435 1.021 6.995V18.005C1.021 18.565 1.4458 19 1.98291 19H17.0869C17.605 19 17.9971 18.584 17.9971 18.005V6.995C17.9971 6.41501 17.6069 6 17.0869 6H14.5H13.5H5.5ZM5.59912 5H13.4009C12.9956 2.98969 11.394 1.5 9.5 1.5C7.60596 1.5 6.00439 2.98969 5.59912 5Z" fill="#9AB0B9"/>
</svg>
