<svg width="18" height="18" viewBox="0 0 18 18" fill="none" xmlns="http://www.w3.org/2000/svg">
<g id="plane-taking-off">
<rect width="16.0001" height="8.00017" fill="black" fill-opacity="0" transform="translate(6.17188 0.514587) rotate(45)"/>
<path id="Combined Shape" fill-rule="evenodd" clip-rule="evenodd" d="M8.28411 4.16406C8.32708 4.20703 10.3867 8.44729 10.3867 8.44729L10.2783 8.41546C12.4838 9.15524 14.726 9.92977 15.5024 10.2727C15.5326 10.2853 16.2426 10.5855 16.707 11.0497C17.1479 11.4911 17.1557 11.8757 17.0815 12.1307C16.8017 12.9236 15.436 12.7771 14.2514 12.3755L11.6948 11.5402L6.60345 9.87704L3.10882 8.73458C3.03216 8.70962 2.97747 8.64083 2.97064 8.56106L2.59173 4.19146C2.58587 4.12707 2.61273 4.06509 2.66253 4.02575C2.71282 3.98644 2.77972 3.97497 2.84124 3.99517L3.12591 4.08392C3.18743 4.10412 3.23626 4.15338 3.25579 4.21557L5.09319 6.70788C5.09319 6.70788 6.16937 7.05563 7.63909 7.53924C7.63128 7.38909 7.62249 7.13113 7.61517 7.12997C7.61517 7.12997 7.49603 4.11233 7.48138 3.8193C7.6347 3.90261 8.24114 4.12109 8.28411 4.16406Z" fill="#A0B0B9"/>
</g>
</svg>
