<svg width="268" height="18" viewBox="0 0 268 18" fill="none" xmlns="http://www.w3.org/2000/svg">
<path fill-rule="evenodd" clip-rule="evenodd" d="M8 9C8 8.44772 8.44772 8 9 8H258C258.552 8 259 8.44772 259 9C259 9.55228 258.552 10 258 10H9.00001C8.44772 10 8 9.55228 8 9Z" fill="#00ACDE"/>
<path fill-rule="evenodd" clip-rule="evenodd" d="M251 9C251 4.58172 254.582 1 259 1C263.418 1 267 4.58172 267 9C267 13.4183 263.418 17 259 17C254.582 17 251 13.4183 251 9Z" fill="white" stroke="#D6D9DA"/>
<path fill-rule="evenodd" clip-rule="evenodd" d="M1 9C1 4.58172 4.58172 1 9 1C13.4183 1 17 4.58172 17 9C17 13.4183 13.4183 17 9 17C4.58172 17 1 13.4183 1 9Z" fill="white" stroke="#D6D9DA"/>
</svg>
