<svg width="38" height="38" viewBox="0 0 38 38" fill="none" xmlns="http://www.w3.org/2000/svg">
<rect width="36" height="36" fill="black" fill-opacity="0" transform="translate(1 1)"/>
<path fill-rule="evenodd" clip-rule="evenodd" d="M1 19C1 9.05888 9.05888 1 19 1C28.9411 1 37 9.05888 37 19C37 28.9411 28.9411 37 19 37C9.05888 37 1 28.9411 1 19Z" fill="#9B9B9B" stroke="#979797"/>
<rect width="16" height="15" fill="black" fill-opacity="0" transform="translate(12 11)"/>
<path fill-rule="evenodd" clip-rule="evenodd" d="M22.807 15.2781C18.071 10.5151 12.198 11.0551 12.198 11.0551L12.209 13.7181C12.209 13.7181 17.131 13.6611 20.758 17.3071C24.384 20.9531 24.215 25.5631 24.215 25.5631L27.106 25.5571C27.105 25.5561 27.542 20.0401 22.807 15.2781ZM12.199 16.214C12.201 17.313 12.194 17.935 12.184 18.86C13.765 18.928 15.847 18.975 17.375 20.688C18.903 22.401 18.944 23.688 19.292 25.555C20.6 25.555 20.925 25.547 22.002 25.527C21.855 23.545 21.019 20.738 19.334 18.917C17.648 17.096 14.25 16.202 12.199 16.214ZM14.218 21.521C13.1 21.521 12.194 22.427 12.194 23.545C12.194 24.663 13.1 25.569 14.218 25.569C15.336 25.569 16.242 24.663 16.242 23.545C16.242 22.427 15.336 21.521 14.218 21.521Z" fill="white"/>
</svg>
