<svg width="20" height="20" viewBox="0 0 20 20" fill="none" xmlns="http://www.w3.org/2000/svg">
<path fill-rule="evenodd" clip-rule="evenodd" d="M11.2498 3.96783L17.9373 9.70001C18.4617 10.1487 19.2508 10.0872 19.6995 9.56256C20.1483 9.0379 20.0867 8.24884 19.5623 7.80011L10.8123 0.30011C10.3446 -0.100037 9.6551 -0.100037 9.18733 0.30011L0.437331 7.80011C-0.0870829 8.24884 -0.148606 9.0379 0.300124 9.56256C0.748855 10.0872 1.53792 10.1487 2.06233 9.70001L8.74983 3.96783V18.7925C8.74983 19.46 9.30989 19.9998 9.99983 19.9998C10.2469 19.9998 10.4774 19.9307 10.6712 19.8113C11.0189 19.597 11.2498 19.221 11.2498 18.7925V3.96783Z" fill="#A0B0B9"/>
</svg>
