<svg width="38" height="38" viewBox="0 0 38 38" fill="none" xmlns="http://www.w3.org/2000/svg">
<rect width="36" height="36" fill="black" fill-opacity="0" transform="translate(1 1)"/>
<path fill-rule="evenodd" clip-rule="evenodd" d="M1 19C1 9.05888 9.05888 1 19 1C28.9411 1 37 9.05888 37 19C37 28.9411 28.9411 37 19 37C9.05888 37 1 28.9411 1 19Z" fill="#9B9B9B" stroke="#979797"/>
<rect width="20" height="16.2162" fill="black" fill-opacity="0" transform="translate(9 11)"/>
<path fill-rule="evenodd" clip-rule="evenodd" d="M28.4811 13.1191C27.773 13.4326 27.0141 13.645 26.2163 13.7407C27.0309 13.2526 27.6557 12.4801 27.9498 11.5596C27.1876 12.0115 26.3444 12.3396 25.4471 12.5163C24.7282 11.7499 23.7038 11.2715 22.5703 11.2715C20.3936 11.2715 18.6298 13.0363 18.6298 15.212C18.6298 15.5218 18.6638 15.8228 18.7309 16.1109C15.4552 15.9461 12.5514 14.3774 10.6076 11.9931C10.2682 12.5753 10.0736 13.2526 10.0736 13.9742C10.0736 15.3418 10.7692 16.5472 11.8271 17.2553C11.1811 17.2336 10.573 17.0574 10.0417 16.7623V16.8109C10.0417 18.7212 11.4 20.3136 13.2027 20.6758C12.873 20.7661 12.5244 20.8142 12.1649 20.8142C11.9109 20.8142 11.6644 20.7899 11.4233 20.7439C11.9249 22.3093 13.38 23.4493 15.1044 23.4807C13.7557 24.5374 12.0568 25.1672 10.2103 25.1672C9.8914 25.1672 9.57788 25.1488 9.26978 25.112C11.0136 26.2309 13.0849 26.8834 15.3114 26.8834C22.56 26.8834 26.5249 20.878 26.5249 15.6688C26.5249 15.4985 26.5211 15.3282 26.5141 15.1591C27.2833 14.6039 27.9519 13.9093 28.48 13.1191" fill="white"/>
</svg>
