<svg width="14" height="14" viewBox="0 0 14 14" fill="none" xmlns="http://www.w3.org/2000/svg">
<rect width="14" height="14" fill="black" fill-opacity="0"/>
<path fill-rule="evenodd" clip-rule="evenodd" d="M13.8687 6.37158C13.9097 3.12744 11.0247 0.120117 7.67432 0.00927734C7.61499 0.0175781 7.54077 0.0126953 7.46143 0.00732422C7.36426 0.000488281 7.25952 -0.00634766 7.16528 0.0102539C7.09448 0.0224609 7.02954 0.0478516 6.97827 0.0966797C6.91626 0.155762 6.87427 0.248535 6.86572 0.394043C6.84375 0.768066 7.28418 0.706543 7.57324 0.750488C11.0615 1.27637 12.6699 2.90234 13.1143 6.34668C13.1233 6.41602 13.1245 6.49316 13.1257 6.57129C13.1306 6.85107 13.1355 7.14551 13.4976 7.15234C13.9814 7.16162 13.8647 6.68994 13.8687 6.37158ZM11.0295 13.9644L11.051 13.9688L11.0881 13.9775L11.1821 14C12.2686 14.0107 13.541 12.9849 13.9087 11.9663C14.0854 11.4766 13.9871 11.1348 13.7705 10.8569C13.554 10.5786 13.219 10.3643 12.9233 10.1309C12.4875 9.78711 12.0225 9.479 11.5645 9.16406C10.6506 8.53467 9.81494 8.48584 9.1333 9.49756C8.75073 10.0659 8.21509 10.0908 7.65454 9.84131C6.10962 9.15479 4.91675 8.09668 4.21802 6.55762C3.90918 5.87646 3.91309 5.26611 4.63647 4.78418C5.01929 4.5293 5.40479 4.22803 5.37402 3.67139C5.33374 2.9458 3.53638 0.520508 2.82666 0.26416C2.74219 0.233887 2.65796 0.212891 2.57349 0.200684C2.50024 0.189941 2.42676 0.186035 2.35327 0.188477C2.2168 0.192383 2.07983 0.218262 1.94165 0.263672C0.277344 0.8125 -0.412354 2.1543 0.248047 3.74365C2.21753 8.48389 5.68384 11.7842 10.4551 13.7983C10.5461 13.8369 10.6406 13.8677 10.7314 13.8931C10.8391 13.9229 10.9421 13.9453 11.0295 13.9644ZM12.1489 5.79004C12.1409 5.84814 12.1433 5.9165 12.1458 5.9873C12.1533 6.20605 12.1619 6.44971 11.8655 6.49414C11.3357 6.57324 11.4387 6.09766 11.387 5.79248C11.0325 3.69727 10.2822 2.92871 8.12793 2.45654C8.06763 2.44336 8.00073 2.43457 7.93262 2.42529C7.74243 2.39941 7.54272 2.37256 7.44727 2.24707C7.39771 2.18164 7.37622 2.08936 7.39893 1.95654C7.46509 1.56934 7.79443 1.62256 8.09741 1.6709L8.10693 1.67236C8.15796 1.68066 8.20776 1.68896 8.25562 1.69434C10.408 1.94775 12.1663 3.77881 12.1489 5.79004ZM10.1724 5.99121C10.4927 5.9541 10.5217 5.67432 10.5115 5.40869C10.5273 4.43848 9.40845 3.31641 8.45312 3.33984C8.22949 3.34521 8.01001 3.36865 7.92749 3.60352C7.80396 3.9541 8.06372 4.0376 8.32837 4.07959C8.80615 4.15479 9.16138 4.33838 9.40112 4.62793C9.60498 4.87402 9.7251 5.19629 9.76562 5.59326C9.78955 5.82812 9.94116 6.01807 10.1724 5.99121Z" fill="#5A5A5A"/>
</svg>
