<svg width="38" height="38" viewBox="0 0 38 38" fill="none" xmlns="http://www.w3.org/2000/svg">
<rect width="36" height="36" fill="black" fill-opacity="0" transform="translate(1 1)"/>
<path fill-rule="evenodd" clip-rule="evenodd" d="M1 19C1 9.05888 9.05888 1 19 1C28.9411 1 37 9.05888 37 19C37 28.9411 28.9411 37 19 37C9.05888 37 1 28.9411 1 19Z" fill="#9B9B9B" stroke="#979797"/>
<rect width="20" height="11.7073" fill="black" fill-opacity="0" transform="translate(9 13)"/>
<path fill-rule="evenodd" clip-rule="evenodd" d="M28.7893 23.3695C28.7649 23.3183 28.7429 23.2768 28.7224 23.2417C28.3819 22.628 27.7302 21.8744 26.7688 20.9812L26.7483 20.9607L26.7385 20.951L26.7278 20.9412H26.718C26.2819 20.5241 26.0058 20.2446 25.8888 20.1022C25.6776 19.829 25.6302 19.5524 25.7458 19.2729C25.8278 19.0612 26.1346 18.6144 26.6668 17.9324C26.9463 17.5715 27.1683 17.2812 27.3312 17.0632C28.5117 15.4939 29.0229 14.4915 28.8663 14.0554L28.8054 13.9529C28.7639 13.8919 28.659 13.8358 28.4883 13.7846C28.3176 13.7334 28.099 13.7246 27.8332 13.7588L24.8868 13.7793C24.839 13.7627 24.7707 13.7637 24.6819 13.7841L24.5488 13.8154L24.4976 13.8412L24.4566 13.8719C24.4224 13.8915 24.3849 13.9276 24.3444 13.9793C24.3034 14.03 24.2693 14.09 24.2419 14.1583C23.921 14.9832 23.5561 15.75 23.1463 16.4588C22.8946 16.8822 22.6624 17.249 22.4512 17.5593C22.2395 17.8695 22.0624 18.0983 21.9195 18.2446C21.7761 18.3919 21.6463 18.5095 21.5307 18.5978C21.4137 18.6866 21.3258 18.7246 21.2649 18.71C21.2034 18.6963 21.1454 18.6827 21.0907 18.6695C20.9951 18.6085 20.9185 18.5251 20.8615 18.4193C20.8029 18.3139 20.7639 18.1802 20.7429 18.0202C20.7234 17.8593 20.7107 17.7217 20.7068 17.6056C20.7034 17.49 20.7049 17.3256 20.7117 17.1144C20.7185 16.9032 20.7224 16.7598 20.7224 16.6851C20.7224 16.4256 20.7273 16.1437 20.7371 15.8412C20.7468 15.5368 20.7566 15.2968 20.7629 15.1193C20.7698 14.9422 20.7727 14.7549 20.7727 14.5563C20.7727 14.3588 20.761 14.2037 20.7371 14.091C20.7137 13.9788 20.6776 13.8695 20.6298 13.7632C20.5819 13.6578 20.5127 13.5758 20.42 13.5183C20.3283 13.4598 20.2141 13.4139 20.0785 13.3798C19.7161 13.2978 19.2556 13.2539 18.6966 13.2466C17.4283 13.2329 16.6127 13.3149 16.2507 13.4924C16.1073 13.5666 15.9776 13.669 15.8619 13.7983C15.739 13.9485 15.7219 14.031 15.8102 14.0441C16.22 14.1061 16.5093 14.2529 16.6805 14.4846L16.7415 14.6076C16.7893 14.6954 16.8371 14.8529 16.8844 15.0778C16.9322 15.3022 16.9624 15.551 16.9761 15.8241C17.0102 16.3217 17.0102 16.748 16.9761 17.1032C16.9429 17.4578 16.9102 17.7339 16.8795 17.9315C16.8488 18.1295 16.8029 18.2895 16.7415 18.4129C16.6805 18.5349 16.639 18.61 16.618 18.6373C16.5985 18.6651 16.581 18.6812 16.5673 18.6885C16.4785 18.7227 16.3868 18.7402 16.2907 18.7402C16.1956 18.7402 16.0795 18.6924 15.9424 18.5968C15.8068 18.5012 15.6644 18.37 15.518 18.2027C15.3717 18.0358 15.2058 17.8027 15.0219 17.5017C14.8376 17.2012 14.6463 16.8471 14.4488 16.4373L14.2849 16.1407C14.1824 15.9505 14.0424 15.6724 13.8654 15.3066C13.6878 14.9422 13.5312 14.5895 13.3946 14.248C13.341 14.1051 13.258 13.9958 13.1488 13.9212L13.0985 13.89C13.0644 13.8632 13.0098 13.8339 12.9346 13.8022C12.86 13.7719 12.7819 13.75 12.7005 13.7363L9.89658 13.7573C9.61024 13.7573 9.41609 13.8222 9.31365 13.9515L9.27268 14.0134C9.25365 14.0476 9.2439 14.1027 9.2439 14.1773C9.2439 14.2529 9.26341 14.3446 9.30536 14.4539C9.71512 15.4149 10.159 16.3427 10.6405 17.2358C11.1215 18.13 11.539 18.8495 11.8932 19.3949C12.2493 19.9402 12.6102 20.4549 12.978 20.9388C13.3468 21.4232 13.5907 21.7339 13.7098 21.8705C13.8293 22.0071 13.9234 22.1085 13.9912 22.1768L14.2473 22.4227C14.4112 22.5866 14.6512 22.7827 14.9693 23.0105C15.2863 23.2398 15.6376 23.4641 16.0229 23.6861C16.4083 23.9076 16.8561 24.0885 17.3683 24.2285C17.8795 24.3676 18.378 24.4237 18.8619 24.3963H20.0385C20.2766 24.3768 20.458 24.3007 20.58 24.1719L20.621 24.1207C20.6488 24.0788 20.6746 24.0158 20.698 23.9305C20.7224 23.8456 20.7341 23.7515 20.7341 23.649C20.7273 23.3563 20.7488 23.0919 20.8005 22.8563C20.8512 22.6222 20.9093 22.4446 20.9746 22.3246C21.0395 22.2051 21.1122 22.1051 21.1941 22.0232C21.2761 21.9412 21.3341 21.8915 21.3688 21.8749C21.4029 21.8573 21.4293 21.8456 21.4502 21.8388C21.6141 21.7841 21.8063 21.8373 22.0283 21.9973C22.2498 22.1583 22.4576 22.3554 22.6527 22.591C22.8468 22.8261 23.0805 23.0905 23.3527 23.3837C23.6258 23.6763 23.8649 23.8944 24.0688 24.0373L24.2737 24.1607C24.4102 24.2427 24.5873 24.3178 24.8054 24.3851C25.0239 24.4544 25.2151 24.4715 25.3785 24.4373L27.998 24.3958C28.2566 24.3958 28.458 24.3534 28.601 24.268C28.7439 24.1827 28.8288 24.089 28.8561 23.9871C28.8839 23.8846 28.8854 23.769 28.861 23.6388C28.8366 23.5095 28.8132 23.4193 28.7902 23.3676L28.7893 23.3695Z" fill="white"/>
</svg>
